<svg width="260" height="260" viewBox="0 0 260 260" fill="none" xmlns="http://www.w3.org/2000/svg">
<g clip-path="url(#clip0_3608_7941)">
<circle cx="130" cy="130" r="130" fill="#748C70"/>
<path fill-rule="evenodd" clip-rule="evenodd" d="M87.1219 252.771C88.0254 248.62 89.1009 244.57 90.3604 240.628C75.3352 222.959 75.3184 205.796 75.3184 197.191V197.181L75.3262 196.086C75.6061 173.131 82.7074 152.003 100.442 136.618C118.361 121.074 146.513 111.941 187.651 111.941H223.89C226.099 111.942 227.89 113.732 227.89 115.941V133.997C227.89 134.073 227.887 134.15 227.883 134.227C225.593 174.123 214.605 202.296 196.423 220.485C178.202 238.713 153.344 246.33 124.584 246.33H97.374C97.2467 246.33 97.1199 246.324 96.9941 246.312C96.1622 249.2 95.4275 252.158 94.7862 255.183C92.1979 254.456 89.6422 253.652 87.1219 252.771ZM105.685 142.661C121.588 128.865 147.54 119.941 187.651 119.941H219.89V133.863C217.654 172.564 207.061 198.528 190.766 214.829C174.496 231.105 151.958 238.33 124.584 238.33H99.6104C102.297 231.063 105.686 224.286 109.856 218.03C119.552 203.486 133.602 191.542 153.291 182.791C155.31 181.894 156.219 179.53 155.322 177.512C154.425 175.493 152.061 174.583 150.042 175.48C129.106 184.785 113.816 197.668 103.199 213.593C99.3906 219.306 96.2048 225.384 93.5752 231.789C83.3183 217.697 83.3183 204.609 83.3184 197.22V197.202C83.3794 175.44 89.8789 156.372 105.685 142.661Z" fill="white"/>
</g>
<defs>
<clipPath id="clip0_3608_7941">
<rect width="260" height="260" fill="white"/>
</clipPath>
</defs>
</svg>
